# xmcd
# 
# Track frame offsets:
#	150
#	15257
#	34425
#	47417
#	63840
#	82600
#	103462
#	113965
#	121775
#	132505
#	140617
#	153782
#	179117
#
# Disc length: 2603 seconds
#
# Revision: 1
# Processed by: cddbd v1.4PL0 Copyright (c) Steve Scherf et al.
# Submitted via: Audio-CD-Archiv 2.10.441
#
DISCID=a90a290d
DTITLE=Graham Parker - Human Soul
DYEAR=1900
DGENRE=country
TTITLE0=Little Miss Understanding
TTITLE1=My Love's Strong
TTITLE2=Dancing For Money
TTITLE3=Call Me Your Doctor
TTITLE4=Big Man On Paper
TTITLE5=Soultime
TTITLE6=Everything Goes
TTITLE7=Sugar Gives You Energy
TTITLE8=Daddy's A Postman
TTITLE9=Green Monkeys
TTITLE10=I Was Wrong
TTITLE11=You Got The World (Right Where You Want It)
TTITLE12=Slash And Burn
EXTD=
EXTT0=
EXTT1=
EXTT2=
EXTT3=
EXTT4=
EXTT5=
EXTT6=
EXTT7=
EXTT8=
EXTT9=
EXTT10=
EXTT11=
EXTT12=
PLAYORDER=
